{
  "asset": {
    "generator": "Khronos glTF Blender I/O v1.0.5",
    "version": "2.0"
  },
  "scene": 0,
  "scenes": [
    {
      "name": "Scene",
      "nodes": [
        0
      ]
    }
  ],
  "nodes": [
    {
      "mesh": 0
    }
  ],
  "materials": [
    {
      "doubleSided": true,
      "pbrMetallicRoughness": {
        "baseColorFactor": [
          1,
          1,
          1,
          1
        ],
        "metallicFactor": 1,
        "roughnessFactor": 1
      },
      "emissiveFactor": [
        0,
        0,
        0
      ],
      "alphaMode": "OPAQUE"
    }
  ],
  "meshes": [
    {
      "primitives": [
        {
          "attributes": {
            "POSITION": 1,
            "NORMAL": 2
          },
          "material": 0,
          "mode": 4,
          "indices": 0
        }
      ]
    }
  ],
  "accessors": [
    {
      "bufferView": 0,
      "byteOffset": 0,
      "componentType": 5123,
      "count": 6666,
      "type": "SCALAR",
      "min": [
        0
      ],
      "max": [
        1186
      ]
    },
    {
      "bufferView": 1,
      "byteOffset": 0,
      "componentType": 5126,
      "count": 1187,
      "type": "VEC3",
      "min": [
        -11.949913024902344,
        -0.451585978269577,
        -11.949913024902344
      ],
      "max": [
        11.949913024902344,
        10.506532669067383,
        11.949913024902344
      ]
    },
    {
      "bufferView": 2,
      "byteOffset": 0,
      "componentType": 5126,
      "count": 1187,
      "type": "VEC3",
      "min": [
        -1,
        -1,
        -1
      ],
      "max": [
        1,
        1,
        1
      ]
    }
  ],
  "bufferViews": [
    {
      "buffer": 0,
      "byteOffset": 0,
      "byteLength": 13332,
      "target": 34963
    },
    {
      "buffer": 0,
      "byteOffset": 13332,
      "byteLength": 14244,
      "target": 34962
    },
    {
      "buffer": 0,
      "byteOffset": 27576,
      "byteLength": 14244,
      "target": 34962
    }
  ],
  "buffers": [
    {
      "uri": "Shadow_Tester_data.bin",
      "byteLength": 41820
    }
  ]
}